<?xml version="1.0" encoding="UTF-8" standalone="no"?>
<!-- Created with Inkscape (http://www.inkscape.org/) -->

<svg
   version="1.1"
   id="svg2"
   width="377.94666"
   height="214.50667"
   viewBox="0 0 377.94666 214.50667"
   sodipodi:docname="fra.svg"
   inkscape:version="1.2.2 (b0a8486541, 2022-12-01)"
   xmlns:inkscape="http://www.inkscape.org/namespaces/inkscape"
   xmlns:sodipodi="http://sodipodi.sourceforge.net/DTD/sodipodi-0.dtd"
   xmlns="http://www.w3.org/2000/svg"
   xmlns:svg="http://www.w3.org/2000/svg">
  <defs
     id="defs6" />
  <sodipodi:namedview
     id="namedview4"
     pagecolor="#ffffff"
     bordercolor="#666666"
     borderopacity="1.0"
     inkscape:showpageshadow="2"
     inkscape:pageopacity="0.0"
     inkscape:pagecheckerboard="0"
     inkscape:deskcolor="#d1d1d1"
     showgrid="false"
     inkscape:zoom="3.6248502"
     inkscape:cx="189.11126"
     inkscape:cy="107.31478"
     inkscape:window-width="1863"
     inkscape:window-height="1045"
     inkscape:window-x="57"
     inkscape:window-y="0"
     inkscape:window-maximized="1"
     inkscape:current-layer="g10">
    <inkscape:page
       x="0"
       y="0"
       id="page8"
       width="377.94666"
       height="214.50667" />
  </sodipodi:namedview>
  <g
     id="g10"
     inkscape:groupmode="layer"
     inkscape:label="Page 1"
     transform="matrix(1.3333333,0,0,-1.3333333,0,214.50667)">
    <g
       id="g12"
       transform="scale(0.1)">
      <path
         d="m 1562.14,980.961 h 385.49 c -11.84,-36.281 -23.57,-72.574 -36.31,-108.832 h -229.46 c -9.98,-29.035 -19.94,-58.07 -29.9,-87.996 h 195.88 c -11.75,-33.543 -23.58,-68.028 -35.38,-102.481 H 1617.47 C 1593.89,613.656 1570.3,544.691 1546.74,475.77 h -156.01 c 57.14,167.777 114.27,336.468 171.41,505.191"
         style="fill:#176fc1;fill-opacity:1;fill-rule:nonzero;stroke:none"
         id="path14" />
      <path
         d="m 2568.01,668.051 c 39,60.781 77.96,121.531 116.97,181.398 -1.81,-60.773 -3.61,-121.535 -5.42,-181.398 z m -421.74,107.957 c -61.68,0 -61.68,0 -61.68,0 11.81,34.41 23.55,68.914 35.35,102.457 h 68.96 c 50.31,0 67.69,-13.336 56.18,-49.863 -5.81,-18.473 -25.74,-52.594 -98.81,-52.594 z M 2834.64,475.77 c -6.35,168.687 -11.76,337.402 -17.21,505.179 H 2645.97 C 2535.44,826.324 2424.88,671.711 2314.98,517.801 c -8.76,43.961 -18.74,91.39 -20.08,98.316 -7.45,38.309 -12.65,66.328 -58.84,82.762 24.49,4.562 45.32,11.809 61.67,19.941 25.41,12.715 47.17,28.145 66.2,48.985 18.14,20.871 32.68,44.433 41.72,72.554 10.88,32.68 12.46,58.59 4.54,81.645 -16.13,47.008 -57.35,58.957 -152.39,58.957 H 1997.53 L 1826.1,475.77 h 156.92 c 23.57,68.921 47.11,136.968 69.84,204.996 H 2070 c 13,0 35.94,-5.528 41.86,-33.438 10.96,-51.699 24.44,-120.777 34.36,-171.558 h 138.76 38.16 121.48 c 18.15,28.101 35.4,56.21 52.67,83.41 h 177.74 c -1.83,-28.121 -2.71,-56.18 -3.65,-83.41 h 163.26"
         style="fill:#176fc1;fill-opacity:1;fill-rule:nonzero;stroke:none"
         id="path16" />
      <path
         d="m 1125.3,1055.69 164.5,129.37 -123.64,13.03 -157.33,-139.34 42.51,-9.19 -110.848,-99.439 V 900.84 l 230.298,145.11 -45.49,9.74"
         style="fill:#231f20;fill-opacity:1;fill-rule:nonzero;stroke:none"
         id="path18" />
      <path
         d="m 1102.66,543.52 173.83,-116.418 -25.77,121.41 -181.11,106.59 4.31,-43.254 -133.428,77.422 v -50.282 l 166.958,-141.968 -4.79,46.5"
         style="fill:#231f20;fill-opacity:1;fill-rule:nonzero;stroke:none"
         id="path20" />
      <path
         d="m 940.492,729.809 229.278,-61.262 -23.02,40.051 206.17,-35.625 -72.8,100.175 -208.8,23.731 21.51,-37.746 -152.338,16.347 v -45.671"
         style="fill:#231f20;fill-opacity:1;fill-rule:nonzero;stroke:none"
         id="path22" />
      <path
         d="m 940.492,816.496 251.668,40.649 -37.49,27.324 202.85,51.332 -107.31,61.937 -200.41,-63.281 35.02,-25.715 -144.328,-46.597 v -45.649"
         style="fill:#231f20;fill-opacity:1;fill-rule:nonzero;stroke:none"
         id="path24" />
      <path
         d="m 232.215,1055.69 -164.4962,129.37 123.6402,13.03 157.332,-139.34 -42.511,-9.19 110.843,-99.439 V 900.84 l -230.285,145.11 45.477,9.74"
         style="fill:#231f20;fill-opacity:1;fill-rule:nonzero;stroke:none"
         id="path26" />
      <path
         d="M 254.855,543.52 81.0234,427.102 l 25.7736,121.41 181.105,106.59 -4.308,-43.254 133.429,77.422 V 638.988 L 250.066,497.02 l 4.789,46.5"
         style="fill:#231f20;fill-opacity:1;fill-rule:nonzero;stroke:none"
         id="path28" />
      <path
         d="M 417.023,729.809 187.746,668.547 210.766,708.598 4.59375,672.973 77.3945,773.148 286.203,796.879 264.691,759.133 417.023,775.48 v -45.671"
         style="fill:#231f20;fill-opacity:1;fill-rule:nonzero;stroke:none"
         id="path30" />
      <path
         d="m 417.023,816.496 -251.66,40.649 37.489,27.324 L 0,935.801 l 107.309,61.937 200.406,-63.281 -35.02,-25.715 144.328,-46.597 v -45.649"
         style="fill:#231f20;fill-opacity:1;fill-rule:nonzero;stroke:none"
         id="path32" />
      <path
         d="m 943.992,1151.36 h -3.113 c -5.328,48.38 -62.188,128.62 -182.543,148.94 v 255.82 l -79.578,52.73 -79.57,-52.73 V 1300.3 C 478.828,1279.98 421.969,1199.74 416.641,1151.36 h -3.207 v -6.53 c 0,-0.78 0.023,-3.23 28.66,-158.885 h -4.641 V 589.609 c 0,-78.339 82.996,-91.8 127.586,-99.05 9.93,-1.61 32.356,-5.071 34.149,-5.34 V 378.488 L 468.809,410.988 445.574,317.82 610.363,279.48 635.727,64.6289 620.973,48.3008 636.785,0 720.75,1.01172 736.551,49.25 l -14.754,16.3281 25.328,213.8909 164.816,38.351 -23.23,93.168 -130.383,-32.5 v 106.731 c 1.793,0.269 24.227,3.73 34.152,5.34 44.59,7.25 127.586,20.711 127.586,99.05 v 396.336 h -4.734 c 28.637,155.655 28.66,158.105 28.66,158.885 v 6.53"
         style="fill:#231f20;fill-opacity:1;fill-rule:nonzero;stroke:none"
         id="path34" />
      <path
         d="m 718.375,64.4883 h 0.051 -0.051"
         style="fill:#231f20;fill-opacity:1;fill-rule:nonzero;stroke:none"
         id="path36" />
      <path
         d="M 628.363,46.7305 641.508,6.60156 715.996,7.48047 729.152,47.6797 716.938,61.1992 640.613,60.3008 628.363,46.7305"
         style="fill:#fddd04;fill-opacity:1;fill-rule:nonzero;stroke:none"
         id="path38" />
      <path
         d="M 453.527,322.68 609.598,286.359 599.48,371.68 473.574,403.07 453.527,322.68"
         style="fill:#fddd04;fill-opacity:1;fill-rule:nonzero;stroke:none"
         id="path40" />
      <path
         d="m 758.035,371.68 -10.121,-85.321 156.07,36.321 -20.039,80.39 -125.91,-31.39"
         style="fill:#fddd04;fill-opacity:1;fill-rule:nonzero;stroke:none"
         id="path42" />
      <path
         d="m 751.383,371.031 -10.145,-85.64 H 616.25 l -10.113,85.64 h 145.246"
         style="fill:#fddd04;fill-opacity:1;fill-rule:nonzero;stroke:none"
         id="path44" />
      <path
         d="m 717.645,86.1094 -75.786,-17.6289 -4.781,40.4805 85.633,19.918 -5.066,-42.7696"
         style="fill:#fddd04;fill-opacity:1;fill-rule:nonzero;stroke:none"
         id="path46" />
      <path
         d="m 723.523,135.781 -87.214,-20.293 -4.782,40.481 97.063,22.582 -5.067,-42.77"
         style="fill:#fddd04;fill-opacity:1;fill-rule:nonzero;stroke:none"
         id="path48" />
      <path
         d="M 729.406,185.449 630.758,162.5 625.98,202.969 734.473,228.23 729.406,185.449"
         style="fill:#fddd04;fill-opacity:1;fill-rule:nonzero;stroke:none"
         id="path50" />
      <path
         d="M 735.285,235.121 625.211,209.5 l -4.781,40.48 119.922,27.911 -5.067,-42.77"
         style="fill:#fddd04;fill-opacity:1;fill-rule:nonzero;stroke:none"
         id="path52" />
      <path
         d="m 617.02,278.852 h 98.621 L 619.656,256.52 Z"
         style="fill:#fddd04;fill-opacity:1;fill-rule:nonzero;stroke:none"
         id="path54" />
      <path
         d="m 664.883,67.1211 51.941,12.0898 -1.355,-11.4921 z"
         style="fill:#fddd04;fill-opacity:1;fill-rule:nonzero;stroke:none"
         id="path56" />
      <path
         d="m 613.313,377.57 65.445,43.371 65.449,-43.371 z"
         style="fill:#fddd04;fill-opacity:1;fill-rule:nonzero;stroke:none"
         id="path58" />
      <path
         d="m 697.047,1452.36 h 23.641 v -36.72 h -23.641 v -17.28 c 19.219,-7.38 32.914,-25.98 32.914,-47.76 0,-19.87 -11.402,-37.05 -27.977,-45.52 17.649,-0.13 34.235,-1.44 49.801,-3.74 l 0.008,251.27 -69.762,46.23 V 1476 h 15.016 v -23.64"
         style="fill:#fddd04;fill-opacity:1;fill-rule:nonzero;stroke:none"
         id="path60" />
      <path
         d="m 655.531,1305.08 c -16.57,8.47 -27.972,25.65 -27.972,45.52 0,21.73 13.632,40.29 32.773,47.71 v 17.33 h -23.644 v 36.72 h 23.644 V 1476 h 15.16 v 122.84 l -69.762,-46.23 v -251.28 c 15.567,2.31 32.157,3.62 49.801,3.75"
         style="fill:#fddd04;fill-opacity:1;fill-rule:nonzero;stroke:none"
         id="path62" />
      <path
         d="m 675.492,461.52 c 0,3.902 -3.429,8.781 -15.183,12.152 -13.055,3.738 -34.297,7.348 -54.579,10.519 v -103.8 l 69.762,46.23 c 0,0 0,34.5 0,34.899"
         style="fill:#fddd04;fill-opacity:1;fill-rule:nonzero;stroke:none"
         id="path64" />
      <path
         d="m 908.684,985.945 c 5.578,30.315 28.769,156.605 28.769,158.885 h -1.148 c -0.555,-0.01 -1.012,-0.1 -1.551,-0.12 -0.613,52.09 -73.52,153.89 -235.652,153.89 h -40.684 c -162.129,0 -235.039,-101.8 -235.656,-153.89 -0.535,0.02 -0.996,0.11 -1.547,0.12 h -1.246 c 0,-2.28 23.195,-128.57 28.769,-158.885 h 459.946"
         style="fill:#fddd04;fill-opacity:1;fill-rule:nonzero;stroke:none"
         id="path66" />
      <path
         d="m 496.82,1029.27 c -26.324,0 -48.32,18.06 -54.375,42.46 3.75,-8.75 12.489,-14.8 22.481,-14.8 13.547,0 24.59,10.95 24.59,24.5 0,13.54 -11.043,24.49 -24.59,24.49 -4.231,0 -8.164,-1.15 -11.625,-3.07 4.515,4.42 6.144,10.66 5.379,17.48 -1.407,11.49 -10.547,21.01 -28.231,23.71 h 48.535 c 0,48.32 54.434,112.3 137.414,128.72 -45.839,-25.07 -87.855,-84.15 -87.855,-128.72 h 23.004 c -10.68,-2.65 -18.609,-12.2 -18.609,-23.71 0,-6.82 2.882,-13.06 7.398,-17.48 -3.461,1.92 -7.496,3.07 -11.723,3.07 -13.543,0 -24.492,-10.95 -24.492,-24.49 0,-13.55 10.949,-24.5 24.492,-24.5 10.184,0 18.832,6.15 22.578,14.99 -5.957,-24.5 -28.05,-42.65 -54.371,-42.65"
         style="fill:#c81a47;fill-opacity:1;fill-rule:nonzero;stroke:none"
         id="path68" />
      <path
         d="m 618.047,1029.27 c -26.32,0 -48.414,18.15 -54.371,42.65 3.75,-8.84 12.39,-14.99 22.578,-14.99 13.539,0 24.492,10.95 24.492,24.5 0,13.54 -10.953,24.49 -24.492,24.49 -4.231,0 -8.262,-1.15 -11.723,-3.07 4.516,4.42 7.399,10.66 7.399,17.48 0,11.51 -7.934,21.06 -18.61,23.71 h 24.434 c 0,26.22 8.691,93.47 69.332,132.76 l -7.934,-132.76 h 23.711 c -10.695,-2.65 -18.695,-12.2 -18.695,-23.71 0,-6.82 2.883,-13.06 7.398,-17.48 -3.461,1.92 -7.398,3.07 -11.625,3.07 -13.546,0 -24.589,-10.95 -24.589,-24.49 0,-13.55 11.043,-24.5 24.589,-24.5 9.989,0 18.731,6.05 22.481,14.8 -6.055,-24.4 -28.055,-42.46 -54.375,-42.46"
         style="fill:#c81a47;fill-opacity:1;fill-rule:nonzero;stroke:none"
         id="path70" />
      <path
         d="m 739.375,1029.27 c -26.32,0 -48.32,18.06 -54.371,42.46 3.844,-8.75 12.488,-14.8 22.574,-14.8 13.449,0 24.496,10.95 24.496,24.5 0,13.54 -11.047,24.49 -24.496,24.49 -4.32,0 -8.262,-1.15 -11.719,-3.07 4.516,4.42 7.399,10.66 7.399,17.48 0,11.51 -8,21.06 -18.641,23.71 h 23.746 l -7.925,132.76 c 60.64,-39.29 69.328,-106.54 69.328,-132.76 h 24.339 c -10.679,-2.65 -18.613,-12.2 -18.613,-23.71 0,-6.82 2.789,-13.06 7.399,-17.48 -3.457,1.92 -7.493,3.07 -11.719,3.07 -13.547,0 -24.496,-10.95 -24.496,-24.49 0,-13.55 10.949,-24.5 24.496,-24.5 10.18,0 18.828,6.15 22.57,14.99 -5.949,-24.5 -28.047,-42.65 -54.367,-42.65"
         style="fill:#c81a47;fill-opacity:1;fill-rule:nonzero;stroke:none"
         id="path72" />
      <path
         d="m 860.605,1029.27 c -26.32,0 -48.414,18.15 -54.371,42.65 3.746,-8.84 12.395,-14.99 22.575,-14.99 13.543,0 24.496,10.95 24.496,24.5 0,13.54 -10.953,24.49 -24.496,24.49 -4.223,0 -8.262,-1.15 -11.719,-3.07 4.609,4.42 7.394,10.66 7.394,17.48 0,11.51 -7.925,21.06 -18.605,23.71 h 23.094 c 0,44.57 -42.016,103.65 -87.856,128.72 82.988,-16.42 137.422,-80.4 137.422,-128.72 h 48.496 c -17.742,-2.7 -26.89,-12.22 -28.293,-23.71 -0.769,-6.82 0.867,-13.06 5.379,-17.48 -3.457,1.92 -7.398,3.07 -11.719,3.07 -13.449,0 -24.5,-10.95 -24.5,-24.49 0,-13.55 11.051,-24.5 24.5,-24.5 10.086,0 18.731,6.05 22.575,14.8 -6.051,-24.4 -28.047,-42.46 -54.372,-42.46"
         style="fill:#c81a47;fill-opacity:1;fill-rule:nonzero;stroke:none"
         id="path74" />
      <path
         d="m 410.504,677.914 v -22.93 l -150.809,-128.273 4.43,42.801 -170.4414,-114.141 18.9024,89 167.547,98.582 -4.371,-43.191 134.742,78.152"
         style="fill:#fddd04;fill-opacity:1;fill-rule:nonzero;stroke:none"
         id="path76" />
      <path
         d="m 410.504,768.215 v -23.27 L 208.105,690.852 229.672,728.43 27.5625,693.469 81.0273,767.023 274.168,788.93 252.66,751.301 410.504,768.215"
         style="fill:#fddd04;fill-opacity:1;fill-rule:nonzero;stroke:none"
         id="path78" />
      <path
         d="m 410.504,857.434 v -23.211 l -217.324,35.129 35.015,25.543 -198.8708,50.289 78.7778,45.457 185.371,-58.512 -34.969,-25.656 152,-49.039"
         style="fill:#fddd04;fill-opacity:1;fill-rule:nonzero;stroke:none"
         id="path80" />
      <path
         d="m 410.504,947.223 v -22.758 l -192.75,121.405 42.172,9.08 -161.1916,126.79 90.4136,9.54 145.524,-128.84 -42.34,-9.25 118.172,-105.967"
         style="fill:#fddd04;fill-opacity:1;fill-rule:nonzero;stroke:none"
         id="path82" />
      <path
         d="m 913.527,979.406 c 0,0 0,-260.73 0,-389.797 0,-67.398 -63.402,-83.058 -122.093,-92.597 -58.696,-9.524 -108.036,-14.821 -112.676,-26.922 -4.637,12.101 -53.981,17.398 -112.668,26.922 -58.699,9.539 -122.102,25.199 -122.102,92.597 0,129.067 0,389.797 0,389.797 h 469.539"
         style="fill:#176fc1;fill-opacity:1;fill-rule:nonzero;stroke:none"
         id="path84" />
      <path
         d="m 682.023,461.52 c 0,3.902 3.43,8.781 15.188,12.152 13.055,3.738 34.297,7.348 54.582,10.519 v -103.8 l -69.762,46.23 c 0,0 -0.008,34.5 -0.008,34.899"
         style="fill:#fddd04;fill-opacity:1;fill-rule:nonzero;stroke:none"
         id="path86" />
      <path
         d="m 947.02,677.914 v -22.93 l 150.8,-128.273 -4.43,42.801 170.44,-114.141 -18.89,89 -167.55,98.582 4.37,-43.191 -134.74,78.152"
         style="fill:#fddd04;fill-opacity:1;fill-rule:nonzero;stroke:none"
         id="path88" />
      <path
         d="m 947.02,768.215 v -23.27 l 202.39,-54.093 -21.56,37.578 202.1,-34.961 -53.46,73.554 -193.14,21.907 21.51,-37.629 -157.84,16.914"
         style="fill:#fddd04;fill-opacity:1;fill-rule:nonzero;stroke:none"
         id="path90" />
      <path
         d="m 947.02,857.434 v -23.211 l 217.32,35.129 -35.02,25.543 198.88,50.289 -78.78,45.457 -185.37,-58.512 34.96,-25.656 -151.99,-49.039"
         style="fill:#fddd04;fill-opacity:1;fill-rule:nonzero;stroke:none"
         id="path92" />
      <path
         d="m 947.02,947.223 v -22.758 l 192.74,121.405 -42.17,9.08 161.19,126.79 -90.41,9.54 -145.52,-128.84 42.33,-9.25 -118.16,-105.967"
         style="fill:#fddd04;fill-opacity:1;fill-rule:nonzero;stroke:none"
         id="path94" />
      <path
         d="m 765.957,594.441 v 123.844 c -0.387,0.02 -0.758,0.106 -1.148,0.106 -9.61,0 -17.375,-7.715 -17.375,-17.266 0,-4.812 2.043,-9.219 5.246,-12.332 -2.453,1.355 -5.313,2.168 -8.313,2.168 -9.605,0 -17.371,-7.715 -17.371,-17.266 0,-9.55 7.766,-17.277 17.371,-17.277 7.223,0 13.352,4.336 16.012,10.566 -2.449,-17.273 -11.543,-30.078 -22.367,-30.078 -6.348,0 -12.039,4.465 -16.207,11.555 -4.16,-7.09 -9.852,-11.555 -16.18,-11.555 -10.832,0 -19.879,12.735 -22.367,29.942 2.652,-6.16 8.855,-10.43 15.941,-10.43 9.606,0 17.442,7.727 17.442,17.277 0,9.551 -7.836,17.266 -17.442,17.266 -3,0 -5.793,-0.813 -8.242,-2.168 3.195,3.113 5.242,7.52 5.242,12.332 0,9.551 -7.836,17.266 -17.441,17.266 -9.606,0 -17.442,-7.715 -17.442,-17.266 0,-4.812 2.047,-9.219 5.25,-12.332 -2.457,1.355 -5.25,2.168 -8.246,2.168 -9.605,0 -17.441,-7.715 -17.441,-17.266 0,-9.55 7.836,-17.277 17.441,-17.277 7.082,0 13.285,4.27 15.942,10.43 -2.492,-17.207 -11.539,-29.942 -22.364,-29.942 -6.332,0 -12.027,4.465 -16.187,11.555 -4.164,-7.09 -9.852,-11.555 -16.203,-11.555 -10.828,0 -19.914,12.805 -22.363,30.078 2.656,-6.23 8.789,-10.566 16.007,-10.566 9.606,0 17.375,7.727 17.375,17.277 0,9.551 -7.769,17.266 -17.375,17.266 -2.996,0 -5.859,-0.813 -8.312,-2.168 3.203,3.113 5.246,7.52 5.246,12.332 0,9.551 -7.77,17.266 -17.371,17.266 -0.399,0 -0.762,-0.086 -1.152,-0.106 V 594.441 h 174.394"
         style="fill:#fddd04;fill-opacity:1;fill-rule:nonzero;stroke:none"
         id="path96" />
      <path
         d="m 663.133,767.152 v 123.836 c -0.391,0.024 -0.754,0.117 -1.153,0.117 -9.601,0 -17.371,-7.722 -17.371,-17.273 0,-4.812 2.043,-9.211 5.243,-12.324 -2.45,1.351 -5.313,2.168 -8.309,2.168 -9.605,0 -17.375,-7.727 -17.375,-17.278 0,-9.55 7.77,-17.269 17.375,-17.269 7.223,0 13.352,4.336 16.012,10.566 -2.453,-17.269 -11.539,-30.074 -22.371,-30.074 -6.348,0 -12.039,4.457 -16.2,11.551 -4.168,-7.094 -9.855,-11.551 -16.187,-11.551 -10.824,0 -19.879,12.734 -22.367,29.938 2.66,-6.164 8.855,-10.43 15.941,-10.43 9.609,0 17.442,7.719 17.442,17.269 0,9.551 -7.833,17.278 -17.442,17.278 -3,0 -5.793,-0.817 -8.242,-2.168 3.203,3.113 5.242,7.512 5.242,12.324 0,9.551 -7.828,17.273 -17.433,17.273 -9.61,0 -17.442,-7.722 -17.442,-17.273 0,-4.812 2.039,-9.211 5.242,-12.324 -2.449,1.351 -5.242,2.168 -8.242,2.168 -9.609,0 -17.441,-7.727 -17.441,-17.278 0,-9.55 7.832,-17.269 17.441,-17.269 7.086,0 13.281,4.266 15.942,10.43 -2.489,-17.204 -11.543,-29.938 -22.368,-29.938 -6.332,0 -12.019,4.457 -16.183,11.551 -4.16,-7.094 -9.856,-11.551 -16.203,-11.551 -10.832,0 -19.918,12.805 -22.368,30.074 2.657,-6.23 8.789,-10.566 16.008,-10.566 9.606,0 17.375,7.719 17.375,17.269 0,9.551 -7.769,17.278 -17.375,17.278 -2.996,0 -5.855,-0.817 -8.308,-2.168 3.203,3.113 5.246,7.512 5.246,12.324 0,9.551 -7.77,17.273 -17.375,17.273 -0.395,0 -0.762,-0.093 -1.153,-0.117 V 767.152 h 174.399"
         style="fill:#fddd04;fill-opacity:1;fill-rule:nonzero;stroke:none"
         id="path98" />
      <path
         d="m 868.695,767.152 v 123.836 c -0.386,0.032 -0.757,0.117 -1.152,0.117 -9.605,0 -17.371,-7.722 -17.371,-17.269 0,-4.809 2.043,-9.215 5.246,-12.328 -2.453,1.351 -5.316,2.168 -8.316,2.168 -9.602,0 -17.368,-7.727 -17.368,-17.278 0,-9.546 7.766,-17.269 17.368,-17.269 7.222,0 13.355,4.336 16.011,10.566 -2.445,-17.269 -11.539,-30.074 -22.363,-30.074 -6.352,0 -12.039,4.457 -16.203,11.551 -4.16,-7.094 -9.856,-11.551 -16.184,-11.551 -10.832,0 -19.879,12.734 -22.367,29.938 2.656,-6.164 8.856,-10.43 15.942,-10.43 9.605,0 17.441,7.723 17.441,17.269 0,9.551 -7.836,17.278 -17.441,17.278 -3,0 -5.793,-0.817 -8.247,-2.168 3.204,3.113 5.247,7.519 5.247,12.328 0,9.547 -7.836,17.269 -17.438,17.269 -9.605,0 -17.441,-7.722 -17.441,-17.269 0,-4.809 2.043,-9.215 5.242,-12.328 -2.449,1.351 -5.242,2.168 -8.242,2.168 -9.606,0 -17.442,-7.727 -17.442,-17.278 0,-9.546 7.836,-17.269 17.442,-17.269 7.086,0 13.285,4.266 15.941,10.43 -2.488,-17.204 -11.535,-29.938 -22.367,-29.938 -6.328,0 -12.024,4.457 -16.184,11.551 -4.164,-7.094 -9.851,-11.551 -16.203,-11.551 -10.824,0 -19.918,12.805 -22.367,30.074 2.66,-6.23 8.789,-10.566 16.008,-10.566 9.609,0 17.375,7.723 17.375,17.269 0,9.551 -7.766,17.278 -17.375,17.278 -2.996,0 -5.86,-0.817 -8.309,-2.168 3.203,3.113 5.242,7.519 5.242,12.328 0,9.547 -7.761,17.269 -17.367,17.269 -0.394,0 -0.765,-0.085 -1.152,-0.117 V 767.152 h 174.394"
         style="fill:#fddd04;fill-opacity:1;fill-rule:nonzero;stroke:none"
         id="path100" />
      <path
         d="m 666.867,1393.64 v -31.25 H 635.68 c 4.125,15.2 16.043,27.13 31.187,31.25"
         style="fill:#176fc1;fill-opacity:1;fill-rule:nonzero;stroke:none"
         id="path102" />
      <path
         d="m 721.844,1338.78 c -5.199,-18.93 -22.543,-32.83 -43.11,-32.83 -20.57,0 -37.855,13.9 -43.054,32.83 h 86.164"
         style="fill:#176fc1;fill-opacity:1;fill-rule:nonzero;stroke:none"
         id="path104" />
      <path
         d="M 721.844,1362.39 H 690.48 v 31.31 c 15.262,-4.13 27.18,-16.11 31.364,-31.31"
         style="fill:#176fc1;fill-opacity:1;fill-rule:nonzero;stroke:none"
         id="path106" />
      <path
         d="m 723.426,1350.59 c 0,-4.07 -0.567,-8.08 -1.582,-11.81 H 635.68 c -1.02,3.73 -1.582,7.74 -1.582,11.81 0,4.07 0.562,8.07 1.582,11.8 h 31.187 v 31.25 c 3.785,1.07 7.742,1.64 11.867,1.64 4.067,0 8.024,-0.57 11.746,-1.58 v -31.31 h 31.364 c 1.015,-3.73 1.582,-7.73 1.582,-11.8"
         style="fill:#fddd04;fill-opacity:1;fill-rule:nonzero;stroke:none"
         id="path108" />
      <path
         d="m 666.863,1400.34 c 3.828,0.92 7.793,1.46 11.895,1.46 4.051,0 7.969,-0.52 11.75,-1.42 v 21.8 h 23.64 v 23.64 h -23.64 v 23.64 h -23.645 v -23.64 h -23.64 v -23.64 h 23.64 v -21.84"
         style="fill:#fddd04;fill-opacity:1;fill-rule:nonzero;stroke:none"
         id="path110" />
    </g>
  </g>
</svg>
