<?xml version="1.0" encoding="UTF-8" standalone="no"?>
<!-- Created with Inkscape (http://www.inkscape.org/) -->

<svg
   version="1.1"
   id="svg2"
   width="418.28268"
   height="115.3684"
   viewBox="0 0 418.28268 115.3684"
   sodipodi:docname="logo_horizontal_black_registered.svg"
   inkscape:version="1.2.2 (b0a8486541, 2022-12-01)"
   xmlns:inkscape="http://www.inkscape.org/namespaces/inkscape"
   xmlns:sodipodi="http://sodipodi.sourceforge.net/DTD/sodipodi-0.dtd"
   xmlns="http://www.w3.org/2000/svg"
   xmlns:svg="http://www.w3.org/2000/svg">
  <defs
     id="defs6">
    <clipPath
       clipPathUnits="userSpaceOnUse"
       id="clipPath18">
      <path
         d="M 0,86.526 H 313.712 V 0 H 0 Z"
         id="path16" />
    </clipPath>
  </defs>
  <sodipodi:namedview
     id="namedview4"
     pagecolor="#ffffff"
     bordercolor="#666666"
     borderopacity="1.0"
     inkscape:showpageshadow="2"
     inkscape:pageopacity="0.0"
     inkscape:pagecheckerboard="0"
     inkscape:deskcolor="#d1d1d1"
     showgrid="false"
     inkscape:zoom="3.2752969"
     inkscape:cx="178.15179"
     inkscape:cy="57.704692"
     inkscape:window-width="1863"
     inkscape:window-height="1045"
     inkscape:window-x="57"
     inkscape:window-y="0"
     inkscape:window-maximized="1"
     inkscape:current-layer="g10">
    <inkscape:page
       x="0"
       y="0"
       id="page8"
       width="418.28268"
       height="115.3684" />
  </sodipodi:namedview>
  <g
     id="g10"
     inkscape:groupmode="layer"
     inkscape:label="Page 1"
     transform="matrix(1.3333333,0,0,-1.3333333,0,115.3684)">
    <g
       id="g12">
      <g
         id="g14"
         clip-path="url(#clipPath18)">
        <g
           id="g20"
           transform="translate(171.6869,48.2832)">
          <path
             d="M 0,0 C 2.677,0 3.671,-1.988 3.671,-4.59 H -4.627 C -4.093,-1.607 -2.295,0 0,0 m -0.153,4.054 c -5.698,0 -10.288,-4.054 -10.288,-10.632 0,-6.884 4.284,-10.899 10.326,-10.899 3.059,0 5.928,0.918 8.452,2.677 l -2.333,3.557 c -1.72,-1.07 -3.633,-1.76 -5.698,-1.76 -2.839,0 -4.454,1.451 -4.939,4.372 h 13.24 c 0.153,0.874 0.379,1.793 0.379,3.315 0,5.507 -3.25,9.37 -9.139,9.37"
             style="fill:#231f20;fill-opacity:1;fill-rule:nonzero;stroke:none"
             id="path22" />
        </g>
        <g
           id="g24"
           transform="translate(255.9315,48.2832)">
          <path
             d="M 0,0 C 2.677,0 3.671,-1.988 3.671,-4.59 H -4.627 C -4.093,-1.607 -2.294,0 0,0 M -0.153,4.054 C -5.851,4.054 -10.44,0 -10.44,-6.578 c 0,-6.884 4.283,-10.899 10.325,-10.899 3.059,0 5.928,0.918 8.452,2.677 l -2.333,3.557 c -1.72,-1.07 -3.633,-1.76 -5.698,-1.76 -2.839,0 -4.454,1.451 -4.939,4.372 h 13.24 c 0.153,0.874 0.379,1.793 0.379,3.315 0,5.507 -3.25,9.37 -9.139,9.37"
             style="fill:#231f20;fill-opacity:1;fill-rule:nonzero;stroke:none"
             id="path26" />
        </g>
        <g
           id="g28"
           transform="translate(277.4007,48.2832)">
          <path
             d="M 0,0 C 2.677,0 3.671,-1.988 3.671,-4.59 H -4.627 C -4.093,-1.607 -2.295,0 0,0 m -0.153,4.054 c -5.699,0 -10.288,-4.054 -10.288,-10.632 0,-6.884 4.284,-10.899 10.326,-10.899 3.059,0 5.928,0.918 8.452,2.677 l -2.333,3.557 c -1.721,-1.07 -3.633,-1.76 -5.699,-1.76 -2.839,0 -4.453,1.451 -4.939,4.372 H 8.607 c 0.153,0.874 0.379,1.793 0.379,3.315 0,5.507 -3.25,9.37 -9.139,9.37"
             style="fill:#231f20;fill-opacity:1;fill-rule:nonzero;stroke:none"
             id="path30" />
        </g>
        <g
           id="g32"
           transform="translate(202.6358,47.1637)">
          <path
             d="m 0,0 c -2.937,0.743 -5.473,1.385 -5.473,3.566 0,1.822 1.738,3.046 4.323,3.046 2.428,0 4.927,-0.594 7.238,-1.719 l 2.015,4.281 c -3.162,1.476 -6.279,2.193 -9.524,2.193 -5.754,0 -9.775,-3.239 -9.775,-7.877 0,-5.889 4.825,-7.144 9.082,-8.252 2.984,-0.776 5.561,-1.446 5.561,-3.68 0,-1.955 -1.719,-3.122 -4.597,-3.122 -2.491,0 -5.297,0.842 -7.918,2.375 l -2.605,-4.269 c 2.86,-1.742 6.982,-2.862 10.562,-2.862 6.342,0 10.28,3.049 10.28,7.956 C 9.169,-2.319 4.085,-1.034 0,0"
             style="fill:#231f20;fill-opacity:1;fill-rule:nonzero;stroke:none"
             id="path34" />
        </g>
        <g
           id="g36"
           transform="translate(124.9199,34.8591)">
          <path
             d="M 0,0 C 1.721,0 3.021,0.726 3.901,1.722 V 5.661 C 0.727,5.468 -2.37,4.666 -2.37,2.067 -2.37,0.842 -1.415,0 0,0 m 3.901,8.758 v 1.796 c 0,1.53 -0.88,2.449 -2.83,2.449 -1.95,0 -4.016,-0.804 -6.54,-2.027 l -1.988,4.131 c 2.754,1.376 5.966,2.331 8.757,2.331 5.89,0 8.183,-2.868 8.183,-7.075 V 1.798 c 0,-1.108 0.651,-1.606 1.684,-1.606 v -3.863 c -3.863,0 -5.468,0.574 -6.616,2.526 -1.721,-1.837 -3.632,-2.869 -6.386,-2.869 -3.595,0 -6.119,2.179 -6.119,5.43 0,4.473 4.244,6.807 11.855,7.342"
             style="fill:#231f20;fill-opacity:1;fill-rule:nonzero;stroke:none"
             id="path38" />
        </g>
        <g
           id="g40"
           transform="translate(139.5513,51.8386)">
          <path
             d="m 0,0 h 5.279 l 0.267,-2.371 c 1.491,1.568 3.67,2.869 6.233,2.869 4.589,0 6.539,-2.831 6.539,-7.458 v -13.575 h -5.622 v 13.729 c 0,1.835 -0.764,3.097 -2.677,3.097 -1.72,0 -3.211,-0.879 -4.435,-2.409 V -20.535 H 0 Z"
             style="fill:#231f20;fill-opacity:1;fill-rule:nonzero;stroke:none"
             id="path42" />
        </g>
        <g
           id="g44"
           transform="translate(216.3637,47.8619)">
          <path
             d="M 0,0 H -3.25 V 3.977 H 0 V 9.101 H 5.622 V 3.977 h 4.595 V 0 H 5.622 v -10.21 c 0,-1.53 0.573,-2.295 1.873,-2.295 1.033,0 1.988,0.344 2.792,0.918 l 2.065,-3.365 c -1.568,-1.224 -3.748,-2.066 -6.005,-2.066 -4.282,0 -6.347,2.104 -6.347,6.693 z"
             style="fill:#231f20;fill-opacity:1;fill-rule:nonzero;stroke:none"
             id="path46" />
        </g>
        <g
           id="g48"
           transform="translate(231.2652,51.8386)">
          <path
             d="m 0,0 h 5.164 l 0.381,-3.174 c 1.569,2.754 3.518,3.748 5.851,3.748 0.956,0 1.836,-0.154 2.525,-0.421 l -0.804,-5.124 c -0.726,0.267 -1.605,0.459 -2.753,0.459 -2.104,0 -3.518,-1.301 -4.78,-3.672 V -20.535 H 0 Z"
             style="fill:#231f20;fill-opacity:1;fill-rule:nonzero;stroke:none"
             id="path50" />
        </g>
        <g
           id="g52"
           transform="translate(291.2566,47.8619)">
          <path
             d="M 0,0 H -3.251 V 3.977 H 0 V 9.101 H 5.622 V 3.977 h 4.595 V 0 H 5.622 v -10.21 c 0,-1.53 0.573,-2.295 1.874,-2.295 1.032,0 1.987,0.344 2.791,0.918 l 2.065,-3.365 c -1.568,-1.224 -3.749,-2.066 -6.004,-2.066 -4.284,0 -6.348,2.104 -6.348,6.693 z"
             style="fill:#231f20;fill-opacity:1;fill-rule:nonzero;stroke:none"
             id="path54" />
        </g>
        <g
           id="g56"
           transform="translate(107.3105,58.0724)">
          <path
             d="m 0,0 v -17.821 c 0,-2.752 -1.339,-4.321 -3.672,-4.321 -1.562,0 -2.793,0.767 -3.753,2.07 l -3.839,-3.476 c 1.979,-2.385 4.661,-3.68 7.898,-3.68 5.583,0 9.14,3.175 9.14,9.293 L 5.774,0 Z"
             style="fill:#231f20;fill-opacity:1;fill-rule:nonzero;stroke:none"
             id="path58" />
        </g>
        <g
           id="g60"
           transform="translate(65.1204,75.3312)">
          <path
             d="M 0,0 C -0.214,0.145 -0.513,0.103 -0.663,-0.117 L -3.232,-3.845 C -3.38,-4.06 -3.36,-4.366 -3.142,-4.523 v 10e-4 c 8.826,-6.29 14.6,-16.602 14.597,-28.242 -0.002,-19.112 -15.551,-34.658 -34.663,-34.656 -19.115,0 -34.662,15.549 -34.66,34.665 0.003,19.11 15.551,34.656 34.665,34.651 4.16,0.004 8.148,-0.744 11.848,-2.093 v 0.003 c 0.238,-0.089 0.512,0.028 0.613,0.277 l 1.62,4.251 c 0.09,0.238 -0.024,0.51 -0.259,0.612 -4.313,1.586 -8.967,2.462 -13.822,2.462 -22.149,0.004 -40.173,-18.015 -40.176,-40.165 0,-22.149 18.021,-40.173 40.17,-40.173 22.149,-10e-4 40.172,18.016 40.172,40.164 C 16.963,-19.253 10.257,-7.286 0,0 m -6.58,-39.588 4.015,-2.153 c 0.237,-0.125 0.552,-0.05 0.653,0.2 1.102,2.653 1.724,5.552 1.75,8.589 0.106,12.713 -10.152,23.143 -22.866,23.25 h -0.195 c -12.607,0 -22.949,-10.257 -23.055,-22.864 -0.106,-12.714 10.151,-23.144 22.865,-23.251 l 0.195,-10e-4 c 6.021,0 11.522,2.342 15.642,6.161 0.201,0.175 0.242,0.486 0.055,0.688 l -3.426,3.088 c -0.196,0.179 -0.499,0.146 -0.684,-0.024 v 10e-4 c -3.098,-2.737 -7.157,-4.405 -11.587,-4.405 l -0.149,10e-4 c -9.676,0.081 -17.482,8.018 -17.401,17.695 0.08,9.596 7.951,17.402 17.545,17.402 l 0.149,-10e-4 c 9.677,-0.081 17.483,-8.019 17.403,-17.694 -0.018,-2.116 -0.419,-4.143 -1.131,-6.021 h 10e-4 c -0.106,-0.263 -0.013,-0.524 0.221,-0.661 m -43.717,-8.459 4.027,2.127 c 0.241,0.122 0.524,0.014 0.647,-0.214 4.578,-7.638 12.941,-12.756 22.474,-12.73 14.394,0.038 26.073,11.782 26.034,26.176 -0.04,14.394 -11.782,26.072 -26.176,26.033 -14.394,-0.039 -26.072,-11.782 -26.033,-26.175 0.004,-1.666 0.168,-3.294 0.473,-4.873 h -0.002 c 0.06,-0.265 -0.116,-0.511 -0.368,-0.575 l -4.4,-1.097 c -0.248,-0.061 -0.511,0.079 -0.578,0.338 -0.406,2.003 -0.629,4.071 -0.635,6.193 -0.047,17.431 14.096,31.651 31.528,31.699 17.432,0.047 31.653,-14.096 31.7,-31.529 0.048,-17.432 -14.096,-31.652 -31.528,-31.7 -11.652,-0.031 -21.861,6.281 -27.369,15.674 -0.134,0.23 -0.03,0.529 0.206,0.653"
             style="fill:#231f20;fill-opacity:1;fill-rule:nonzero;stroke:none"
             id="path62" />
        </g>
        <g
           id="g64"
           transform="translate(307.1627,56.8705)">
          <path
             d="M 0,0 H 0.345 C 0.747,0 1.073,0.134 1.073,0.459 1.073,0.747 0.861,0.938 0.402,0.938 0.21,0.938 0.076,0.919 0,0.899 Z m -0.02,-1.78 h -0.727 v 3.139 c 0.288,0.058 0.689,0.096 1.207,0.096 0.593,0 0.861,-0.096 1.091,-0.23 C 1.723,1.091 1.857,0.843 1.857,0.536 1.857,0.192 1.589,-0.076 1.206,-0.192 V -0.23 C 1.513,-0.345 1.685,-0.574 1.78,-0.995 1.876,-1.474 1.934,-1.666 2.01,-1.78 H 1.225 C 1.129,-1.666 1.073,-1.379 0.977,-1.015 0.919,-0.67 0.727,-0.517 0.326,-0.517 H -0.02 Z m -1.933,1.646 c 0,-1.398 1.034,-2.508 2.451,-2.508 1.378,0 2.393,1.11 2.393,2.488 0,1.399 -1.015,2.528 -2.412,2.528 -1.398,0 -2.432,-1.129 -2.432,-2.508 m 5.649,0 c 0,-1.78 -1.398,-3.178 -3.217,-3.178 -1.8,0 -3.236,1.398 -3.236,3.178 0,1.742 1.436,3.14 3.236,3.14 1.819,0 3.217,-1.398 3.217,-3.14"
             style="fill:#231f20;fill-opacity:1;fill-rule:nonzero;stroke:none"
             id="path66" />
        </g>
      </g>
    </g>
  </g>
</svg>
