<svg width="711" height="91" xmlns="http://www.w3.org/2000/svg" xmlns:xlink="http://www.w3.org/1999/xlink" xml:space="preserve" overflow="hidden"><defs><clipPath id="clip0"><rect x="1478" y="498" width="711" height="91"/></clipPath><clipPath id="clip1"><rect x="1479" y="499" width="710" height="90"/></clipPath><clipPath id="clip2"><rect x="1479" y="499" width="710" height="90"/></clipPath><clipPath id="clip3"><rect x="1479" y="499" width="710" height="90"/></clipPath></defs><g clip-path="url(#clip0)" transform="translate(-1478 -498)"><g clip-path="url(#clip1)"><g clip-path="url(#clip2)"><g clip-path="url(#clip3)"><path d="M296.043 58.0396 341.397 58.0396 317.435 19.4433 273.615 89.1737 253.467 89.1737 306.781 5.4723C310.86-0.251692 318.808-1.58469 324.532 2.49498 325.683 3.31523 326.689 4.32142 327.509 5.4723L381.403 89.2151 361.421 89.2151 352.01 73.6274 306.076 73.6274 296.043 58.0396ZM503.991 73.6274 503.991 0.870594 486.994 0.870594 486.994 80.7165C487.002 82.9324 487.897 85.0525 489.481 86.6033 491.127 88.2587 493.366 89.1849 495.7 89.1737L573.141 89.1737 583.132 73.6274ZM222.996 60.6099C239.493 61.2247 253.364 48.3499 253.979 31.8532 254.594 15.3567 241.719 1.48528 225.222 0.870594 224.481 0.842955 223.738 0.842955 222.996 0.870594L148.706 0.870594 148.706 89.1737 165.827 89.1737 165.827 16.5827 221.836 16.5827C229.723 16.1576 236.462 22.2072 236.887 30.0949 237.312 37.9826 231.263 44.7216 223.375 45.1465 222.862 45.1743 222.348 45.1743 221.836 45.1465L174.119 45.1465 224.655 89.1737 249.529 89.1737 215.451 60.5685ZM44.1515 89.1737C19.7673 89.1737-1.58145e-06 69.4062-1.58145e-06 45.0221-1.58145e-06 20.6379 19.7673 0.870598 44.1515 0.870598L95.3507 0.870594C119.746 1.61805 138.917 22.0006 138.169 46.3964 137.454 69.7416 118.696 88.5 95.3507 89.2151ZM94.3558 73.6274C110.108 72.4255 121.904 58.6809 120.702 42.9286 119.627 28.8472 108.437 17.6572 94.3558 16.5827L45.3123 16.5827C29.5256 15.9814 16.2404 28.2917 15.6391 44.0786 15.0377 59.8653 27.348 73.1506 43.1346 73.7517 43.8605 73.7795 44.5868 73.7795 45.3123 73.7517ZM416.89 89.1737C392.506 89.1737 372.739 69.4062 372.739 45.0221 372.739 20.6379 392.506 0.870598 416.89 0.870598L477.873 0.870594 467.882 16.5827 418.134 16.5827C402.347 15.9814 389.062 28.2917 388.461 44.0786 387.859 59.8653 400.169 73.1506 415.957 73.7517 416.683 73.7795 417.408 73.7795 418.134 73.7517L479.241 73.7517 469.292 89.298ZM624.63 73.6274C611.866 73.6352 600.648 65.1735 597.144 52.8989L669.735 52.8989 679.892 37.3112 596.979 37.3112C600.498 25.0301 611.729 16.5703 624.506 16.5827L674.254 16.5827 684.453 0.870594 623.47 0.870594C599.085 0.870594 579.318 20.6379 579.318 45.0221 579.318 69.4062 599.085 89.1737 623.47 89.1737L675.747 89.1737 685.738 73.6274Z" fill="#C74634" fill-rule="nonzero" fill-opacity="1" transform="matrix(1.03519 0 0 1 1479 499.392)"/></g></g></g></g></svg>