<?xml version="1.0" encoding="UTF-8" standalone="no"?>
<!-- Created with Inkscape (http://www.inkscape.org/) -->

<svg
   version="1.1"
   id="svg2"
   width="609.49469"
   height="589.7453"
   viewBox="0 0 609.49469 589.7453"
   sodipodi:docname="logo.svg"
   inkscape:version="1.2.1 (9c6d41e410, 2022-07-14)"
   xmlns:inkscape="http://www.inkscape.org/namespaces/inkscape"
   xmlns:sodipodi="http://sodipodi.sourceforge.net/DTD/sodipodi-0.dtd"
   xmlns="http://www.w3.org/2000/svg"
   xmlns:svg="http://www.w3.org/2000/svg">
  <defs
     id="defs6">
    <clipPath
       clipPathUnits="userSpaceOnUse"
       id="clipPath34">
      <path
         d="M 0,442.309 H 457.121 V 0 H 0 Z"
         id="path32" />
    </clipPath>
  </defs>
  <sodipodi:namedview
     id="namedview4"
     pagecolor="#ffffff"
     bordercolor="#666666"
     borderopacity="1.0"
     inkscape:showpageshadow="2"
     inkscape:pageopacity="0.0"
     inkscape:pagecheckerboard="0"
     inkscape:deskcolor="#d1d1d1"
     showgrid="false"
     inkscape:zoom="1.4514741"
     inkscape:cx="304.86249"
     inkscape:cy="202.55271"
     inkscape:window-width="1860"
     inkscape:window-height="1045"
     inkscape:window-x="60"
     inkscape:window-y="0"
     inkscape:window-maximized="1"
     inkscape:current-layer="g10">
    <inkscape:page
       x="0"
       y="0"
       id="page8"
       width="609.49469"
       height="589.7453" />
  </sodipodi:namedview>
  <g
     id="g10"
     inkscape:groupmode="layer"
     inkscape:label="Page 1"
     transform="matrix(1.3333333,0,0,-1.3333333,0,589.74533)">
    <g
       id="g12"
       transform="translate(160.2406,181.3785)">
      <path
         d="M 0,0 -15.269,15.269 68.963,99.501 84.232,84.232 Z"
         style="fill:#0786c5;fill-opacity:1;fill-rule:nonzero;stroke:none"
         id="path14" />
    </g>
    <g
       id="g16"
       transform="translate(160.2406,181.3785)">
      <path
         d="M 0,0 -15.269,15.269 68.963,99.501 84.232,84.232 Z"
         style="fill:none;stroke:#ffffff;stroke-width:5;stroke-linecap:butt;stroke-linejoin:miter;stroke-miterlimit:10;stroke-dasharray:none;stroke-opacity:1"
         id="path18" />
    </g>
    <g
       id="g20"
       transform="translate(308.6895,199.5744)">
      <path
         d="m 0,0 -15.269,-15.269 -84.232,84.232 15.269,15.269 z"
         style="fill:#0786c5;fill-opacity:1;fill-rule:nonzero;stroke:none"
         id="path22" />
    </g>
    <g
       id="g24"
       transform="translate(308.6895,199.5744)">
      <path
         d="m 0,0 -15.269,-15.269 -84.232,84.232 15.269,15.269 z"
         style="fill:none;stroke:#ffffff;stroke-width:5;stroke-linecap:butt;stroke-linejoin:miter;stroke-miterlimit:10;stroke-dasharray:none;stroke-opacity:1"
         id="path26" />
    </g>
    <g
       id="g28">
      <g
         id="g30"
         clip-path="url(#clipPath34)">
        <g
           id="g36"
           transform="translate(27.1865,2.5)">
          <path
             d="m 0,0 h -5.49 c -4.447,0 -8.052,3.605 -8.052,8.052 v 287.144 c 0,4.447 3.605,8.052 8.052,8.052 H 0 c 4.447,0 8.052,-3.605 8.052,-8.052 V 8.052 C 8.052,3.605 4.447,0 0,0"
             style="fill:#231f20;fill-opacity:1;fill-rule:nonzero;stroke:none"
             id="path38" />
        </g>
        <g
           id="g40"
           transform="translate(27.1865,2.5)">
          <path
             d="m 0,0 h -5.49 c -4.447,0 -8.052,3.605 -8.052,8.052 v 287.144 c 0,4.447 3.605,8.052 8.052,8.052 H 0 c 4.447,0 8.052,-3.605 8.052,-8.052 V 8.052 C 8.052,3.605 4.447,0 0,0 Z"
             style="fill:none;stroke:#ffffff;stroke-width:5;stroke-linecap:butt;stroke-linejoin:miter;stroke-miterlimit:10;stroke-dasharray:none;stroke-opacity:1"
             id="path42" />
        </g>
        <path
           d="m 159.228,192.941 h -21.594 v 112.807 h 21.594 z"
           style="fill:#009e49;fill-opacity:1;fill-rule:nonzero;stroke:#ffffff;stroke-width:5;stroke-linecap:butt;stroke-linejoin:miter;stroke-miterlimit:10;stroke-dasharray:none;stroke-opacity:1"
           id="path44" />
        <g
           id="g46"
           transform="translate(32.3453,305.7476)">
          <path
             d="M 0,0 -18.701,10.797 40.86,113.96 59.561,103.163 Z"
             style="fill:#d43437;fill-opacity:1;fill-rule:nonzero;stroke:none"
             id="path48" />
        </g>
        <g
           id="g50"
           transform="translate(32.3453,305.7476)">
          <path
             d="M 0,0 -18.701,10.797 40.86,113.96 59.561,103.163 Z"
             style="fill:none;stroke:#ffffff;stroke-width:5;stroke-linecap:butt;stroke-linejoin:miter;stroke-miterlimit:10;stroke-dasharray:none;stroke-opacity:1"
             id="path52" />
        </g>
        <g
           id="g54"
           transform="translate(46.3825,305.7476)">
          <path
             d="m 0,0 c 0,-12.118 -9.823,-21.941 -21.941,-21.941 -12.118,0 -21.941,9.823 -21.941,21.941 0,12.118 9.823,21.941 21.941,21.941 C -9.823,21.941 0,12.118 0,0"
             style="fill:#009e49;fill-opacity:1;fill-rule:nonzero;stroke:none"
             id="path56" />
        </g>
        <g
           id="g58"
           transform="translate(46.3825,305.7476)">
          <path
             d="m 0,0 c 0,-12.118 -9.823,-21.941 -21.941,-21.941 -12.118,0 -21.941,9.823 -21.941,21.941 0,12.118 9.823,21.941 21.941,21.941 C -9.823,21.941 0,12.118 0,0 Z"
             style="fill:none;stroke:#ffffff;stroke-width:5;stroke-linecap:butt;stroke-linejoin:miter;stroke-miterlimit:10;stroke-dasharray:none;stroke-opacity:1"
             id="path60" />
        </g>
        <g
           id="g62"
           transform="translate(154.6651,316.5447)">
          <path
             d="m 0,0 -18.701,-10.797 -59.561,103.163 18.701,10.797 z"
             style="fill:#f3c31a;fill-opacity:1;fill-rule:nonzero;stroke:none"
             id="path64" />
        </g>
        <g
           id="g66"
           transform="translate(154.6651,316.5447)">
          <path
             d="m 0,0 -18.701,-10.797 -59.561,103.163 18.701,10.797 z"
             style="fill:none;stroke:#ffffff;stroke-width:5;stroke-linecap:butt;stroke-linejoin:miter;stroke-miterlimit:10;stroke-dasharray:none;stroke-opacity:1"
             id="path68" />
        </g>
        <g
           id="g70"
           transform="translate(106.5516,417.8676)">
          <path
             d="m 0,0 c 0,-12.118 -9.823,-21.941 -21.941,-21.941 -12.118,0 -21.941,9.823 -21.941,21.941 0,12.118 9.823,21.941 21.941,21.941 C -9.823,21.941 0,12.118 0,0"
             style="fill:#0786c5;fill-opacity:1;fill-rule:nonzero;stroke:none"
             id="path72" />
        </g>
        <g
           id="g74"
           transform="translate(106.5516,417.8676)">
          <path
             d="m 0,0 c 0,-12.118 -9.823,-21.941 -21.941,-21.941 -12.118,0 -21.941,9.823 -21.941,21.941 0,12.118 9.823,21.941 21.941,21.941 C -9.823,21.941 0,12.118 0,0 Z"
             style="fill:none;stroke:#ffffff;stroke-width:5;stroke-linecap:butt;stroke-linejoin:miter;stroke-miterlimit:10;stroke-dasharray:none;stroke-opacity:1"
             id="path76" />
        </g>
        <g
           id="g78"
           transform="translate(170.3726,305.7476)">
          <path
             d="m 0,0 c 0,-12.118 -9.823,-21.941 -21.941,-21.941 -12.118,0 -21.941,9.823 -21.941,21.941 0,12.118 9.823,21.941 21.941,21.941 C -9.823,21.941 0,12.118 0,0"
             style="fill:#d43437;fill-opacity:1;fill-rule:nonzero;stroke:none"
             id="path80" />
        </g>
        <g
           id="g82"
           transform="translate(170.3726,305.7476)">
          <path
             d="m 0,0 c 0,-12.118 -9.823,-21.941 -21.941,-21.941 -12.118,0 -21.941,9.823 -21.941,21.941 0,12.118 9.823,21.941 21.941,21.941 C -9.823,21.941 0,12.118 0,0 Z"
             style="fill:none;stroke:#ffffff;stroke-width:5;stroke-linecap:butt;stroke-linejoin:miter;stroke-miterlimit:10;stroke-dasharray:none;stroke-opacity:1"
             id="path84" />
        </g>
        <path
           d="m 319.487,191.16 h -21.594 v 114.588 h 21.594 z"
           style="fill:#d43437;fill-opacity:1;fill-rule:nonzero;stroke:#ffffff;stroke-width:5;stroke-linecap:butt;stroke-linejoin:miter;stroke-miterlimit:10;stroke-dasharray:none;stroke-opacity:1"
           id="path86" />
        <g
           id="g88"
           transform="translate(435.3966,2.5)">
          <path
             d="m 0,0 h -5.434 c -4.463,0 -8.08,3.618 -8.08,8.08 v 287.088 c 0,4.462 3.617,8.08 8.08,8.08 H 0 c 4.462,0 8.08,-3.618 8.08,-8.08 L 8.08,8.08 C 8.08,3.618 4.462,0 0,0"
             style="fill:#231f20;fill-opacity:1;fill-rule:nonzero;stroke:none"
             id="path90" />
        </g>
        <g
           id="g92"
           transform="translate(435.3966,2.5)">
          <path
             d="m 0,0 h -5.434 c -4.463,0 -8.08,3.618 -8.08,8.08 v 287.088 c 0,4.462 3.617,8.08 8.08,8.08 H 0 c 4.462,0 8.08,-3.618 8.08,-8.08 L 8.08,8.08 C 8.08,3.618 4.462,0 0,0 Z"
             style="fill:none;stroke:#ffffff;stroke-width:5;stroke-linecap:butt;stroke-linejoin:miter;stroke-miterlimit:10;stroke-dasharray:none;stroke-opacity:1"
             id="path94" />
        </g>
        <g
           id="g96"
           transform="translate(316.5935,305.7476)">
          <path
             d="M 0,0 -18.701,10.797 40.86,113.96 59.561,103.163 Z"
             style="fill:#f3c31a;fill-opacity:1;fill-rule:nonzero;stroke:none"
             id="path98" />
        </g>
        <g
           id="g100"
           transform="translate(316.5935,305.7476)">
          <path
             d="M 0,0 -18.701,10.797 40.86,113.96 59.561,103.163 Z"
             style="fill:none;stroke:#ffffff;stroke-width:5;stroke-linecap:butt;stroke-linejoin:miter;stroke-miterlimit:10;stroke-dasharray:none;stroke-opacity:1"
             id="path102" />
        </g>
        <g
           id="g104"
           transform="translate(330.6307,305.7476)">
          <path
             d="m 0,0 c 0,-12.118 -9.823,-21.941 -21.941,-21.941 -12.118,0 -21.941,9.823 -21.941,21.941 0,12.118 9.823,21.941 21.941,21.941 C -9.823,21.941 0,12.118 0,0"
             style="fill:#0786c5;fill-opacity:1;fill-rule:nonzero;stroke:none"
             id="path106" />
        </g>
        <g
           id="g108"
           transform="translate(330.6307,305.7476)">
          <path
             d="m 0,0 c 0,-12.118 -9.823,-21.941 -21.941,-21.941 -12.118,0 -21.941,9.823 -21.941,21.941 0,12.118 9.823,21.941 21.941,21.941 C -9.823,21.941 0,12.118 0,0 Z"
             style="fill:none;stroke:#ffffff;stroke-width:5;stroke-linecap:butt;stroke-linejoin:miter;stroke-miterlimit:10;stroke-dasharray:none;stroke-opacity:1"
             id="path110" />
        </g>
        <g
           id="g112"
           transform="translate(166.9124,192.941)">
          <path
             d="m 0,0 c 0,-12.118 -9.823,-21.941 -21.941,-21.941 -12.118,0 -21.941,9.823 -21.941,21.941 0,12.118 9.823,21.941 21.941,21.941 C -9.823,21.941 0,12.118 0,0"
             style="fill:#f3c31a;fill-opacity:1;fill-rule:nonzero;stroke:none"
             id="path114" />
        </g>
        <g
           id="g116"
           transform="translate(166.9124,192.941)">
          <path
             d="m 0,0 c 0,-12.118 -9.823,-21.941 -21.941,-21.941 -12.118,0 -21.941,9.823 -21.941,21.941 0,12.118 9.823,21.941 21.941,21.941 C -9.823,21.941 0,12.118 0,0 Z"
             style="fill:none;stroke:#ffffff;stroke-width:5;stroke-linecap:butt;stroke-linejoin:miter;stroke-miterlimit:10;stroke-dasharray:none;stroke-opacity:1"
             id="path118" />
        </g>
        <g
           id="g120"
           transform="translate(330.6307,191.1601)">
          <path
             d="m 0,0 c 0,-12.118 -9.823,-21.941 -21.941,-21.941 -12.118,0 -21.941,9.823 -21.941,21.941 0,12.118 9.823,21.941 21.941,21.941 C -9.823,21.941 0,12.118 0,0"
             style="fill:#009e49;fill-opacity:1;fill-rule:nonzero;stroke:none"
             id="path122" />
        </g>
        <g
           id="g124"
           transform="translate(330.6307,191.1601)">
          <path
             d="m 0,0 c 0,-12.118 -9.823,-21.941 -21.941,-21.941 -12.118,0 -21.941,9.823 -21.941,21.941 0,12.118 9.823,21.941 21.941,21.941 C -9.823,21.941 0,12.118 0,0 Z"
             style="fill:none;stroke:#ffffff;stroke-width:5;stroke-linecap:butt;stroke-linejoin:miter;stroke-miterlimit:10;stroke-dasharray:none;stroke-opacity:1"
             id="path126" />
        </g>
        <g
           id="g128"
           transform="translate(438.9133,316.5447)">
          <path
             d="m 0,0 -18.701,-10.797 -59.561,103.163 18.701,10.797 z"
             style="fill:#009e49;fill-opacity:1;fill-rule:nonzero;stroke:none"
             id="path130" />
        </g>
        <g
           id="g132"
           transform="translate(438.9133,316.5447)">
          <path
             d="m 0,0 -18.701,-10.797 -59.561,103.163 18.701,10.797 z"
             style="fill:none;stroke:#ffffff;stroke-width:5;stroke-linecap:butt;stroke-linejoin:miter;stroke-miterlimit:10;stroke-dasharray:none;stroke-opacity:1"
             id="path134" />
        </g>
        <g
           id="g136"
           transform="translate(390.7998,417.8676)">
          <path
             d="m 0,0 c 0,-12.118 -9.823,-21.941 -21.941,-21.941 -12.118,0 -21.941,9.823 -21.941,21.941 0,12.118 9.823,21.941 21.941,21.941 C -9.823,21.941 0,12.118 0,0"
             style="fill:#d43437;fill-opacity:1;fill-rule:nonzero;stroke:none"
             id="path138" />
        </g>
        <g
           id="g140"
           transform="translate(390.7998,417.8676)">
          <path
             d="m 0,0 c 0,-12.118 -9.823,-21.941 -21.941,-21.941 -12.118,0 -21.941,9.823 -21.941,21.941 0,12.118 9.823,21.941 21.941,21.941 C -9.823,21.941 0,12.118 0,0 Z"
             style="fill:none;stroke:#ffffff;stroke-width:5;stroke-linecap:butt;stroke-linejoin:miter;stroke-miterlimit:10;stroke-dasharray:none;stroke-opacity:1"
             id="path142" />
        </g>
        <g
           id="g144"
           transform="translate(250.5016,261.2379)">
          <path
             d="m 0,0 c 0,-12.118 -9.823,-21.941 -21.941,-21.941 -12.118,0 -21.941,9.823 -21.941,21.941 0,12.118 9.823,21.941 21.941,21.941 C -9.823,21.941 0,12.118 0,0"
             style="fill:#231f20;fill-opacity:1;fill-rule:nonzero;stroke:none"
             id="path146" />
        </g>
        <g
           id="g148"
           transform="translate(250.5016,261.2379)">
          <path
             d="m 0,0 c 0,-12.118 -9.823,-21.941 -21.941,-21.941 -12.118,0 -21.941,9.823 -21.941,21.941 0,12.118 9.823,21.941 21.941,21.941 C -9.823,21.941 0,12.118 0,0 Z"
             style="fill:none;stroke:#ffffff;stroke-width:5;stroke-linecap:butt;stroke-linejoin:miter;stroke-miterlimit:10;stroke-dasharray:none;stroke-opacity:1"
             id="path150" />
        </g>
        <g
           id="g152"
           transform="translate(454.6208,305.7476)">
          <path
             d="m 0,0 c 0,-12.118 -9.823,-21.941 -21.941,-21.941 -12.118,0 -21.941,9.823 -21.941,21.941 0,12.118 9.823,21.941 21.941,21.941 C -9.823,21.941 0,12.118 0,0"
             style="fill:#f3c31a;fill-opacity:1;fill-rule:nonzero;stroke:none"
             id="path154" />
        </g>
        <g
           id="g156"
           transform="translate(454.6208,305.7476)">
          <path
             d="m 0,0 c 0,-12.118 -9.823,-21.941 -21.941,-21.941 -12.118,0 -21.941,9.823 -21.941,21.941 0,12.118 9.823,21.941 21.941,21.941 C -9.823,21.941 0,12.118 0,0 Z"
             style="fill:none;stroke:#ffffff;stroke-width:5;stroke-linecap:butt;stroke-linejoin:miter;stroke-miterlimit:10;stroke-dasharray:none;stroke-opacity:1"
             id="path158" />
        </g>
      </g>
    </g>
    <text
       xml:space="preserve"
       transform="matrix(1,0,0,-1,65.6572,49.4463)"
       style="font-variant:normal;font-weight:300;font-stretch:normal;font-size:128.069px;font-family:'Raleway Light';-inkscape-font-specification:Raleway-Light;writing-mode:lr-tb;fill:#231f20;fill-opacity:1;fill-rule:nonzero;stroke:none"
       id="text162"><tspan
         x="0 86.70298 188.77429 295.45612"
         y="0"
         sodipodi:role="line"
         id="tspan160">EGOI</tspan></text>
  </g>
</svg>
